<svg width="216" height="113" viewBox="0 0 216 113" fill="none" xmlns="http://www.w3.org/2000/svg">
<path d="M53.824 29.88C55.1467 30.136 56.128 30.584 56.768 31.224C57.4507 31.864 57.792 32.6107 57.792 33.464C57.792 34.872 57.3867 35.896 56.576 36.536C55.808 37.176 54.5707 37.432 52.864 37.304C49.024 37.0053 46.016 36.8133 43.84 36.728C41.7067 36.6 38.8907 36.5147 35.392 36.472C33.8133 44.3227 32.3627 52.216 31.04 60.152C30.5707 63.0533 30.08 66.424 29.568 70.264C29.056 74.0613 28.7147 77.1333 28.544 79.48C28.4587 80.7173 27.9467 81.6773 27.008 82.36C26.0693 83 24.9387 83.32 23.616 83.32C22.208 83.32 21.12 82.9787 20.352 82.296C19.584 81.6133 19.2 80.7173 19.2 79.608C19.2 78.584 19.3493 76.8987 19.648 74.552C19.9893 72.1627 20.3733 69.6667 20.8 67.064C21.2693 64.4613 21.632 62.2 21.888 60.28C22.3573 57.0373 22.8907 53.816 23.488 50.616C24.0853 47.416 24.6827 44.3867 25.28 41.528C25.408 40.888 25.5573 40.1627 25.728 39.352C25.8987 38.4987 26.0907 37.56 26.304 36.536C22.1227 36.664 18.8373 37.0053 16.448 37.56C14.0587 38.1147 12.352 38.904 11.328 39.928C10.3467 40.9093 9.856 42.1893 9.856 43.768C9.856 45.2187 10.2827 46.6053 11.136 47.928C11.3067 48.2267 11.392 48.5467 11.392 48.888C11.392 49.6987 10.9013 50.4667 9.92 51.192C8.98133 51.8747 8 52.216 6.976 52.216C6.25067 52.216 5.65333 52.0027 5.184 51.576C4.33067 50.8507 3.62667 49.8267 3.072 48.504C2.51733 47.1387 2.24 45.6027 2.24 43.896C2.24 40.2693 3.41333 37.368 5.76 35.192C8.14933 32.9733 11.7547 31.352 16.576 30.328C21.44 29.304 27.6693 28.792 35.264 28.792C39.9573 28.792 43.6907 28.8773 46.464 29.048C49.28 29.2187 51.7333 29.496 53.824 29.88ZM52.2875 83.32C50.3675 83.32 48.7888 82.4453 47.5515 80.696C46.3568 78.904 45.7595 76.6853 45.7595 74.04C45.7595 70.84 45.9728 67.9173 46.3995 65.272C46.8262 62.584 47.5302 59.7467 48.5115 56.76C48.9382 55.48 49.5355 54.5627 50.3035 54.008C51.0715 53.4533 52.2875 53.176 53.9515 53.176C54.8902 53.176 55.5302 53.3253 55.8715 53.624C56.2555 53.9227 56.4475 54.3707 56.4475 54.968C56.4475 55.3093 56.2128 56.4613 55.7435 58.424C55.3168 60.0027 54.9755 61.432 54.7195 62.712C53.8662 67.192 53.4395 70.1787 53.4395 71.672C53.4395 72.568 53.5462 73.208 53.7595 73.592C53.9728 73.9333 54.3142 74.104 54.7835 74.104C55.4235 74.104 56.2128 73.464 57.1515 72.184C58.1328 70.904 59.1568 68.9627 60.2235 66.36C61.3328 63.7573 62.3995 60.5573 63.4235 56.76C63.7648 55.48 64.2768 54.5627 64.9595 54.008C65.6848 53.4533 66.7515 53.176 68.1595 53.176C69.1408 53.176 69.8235 53.304 70.2075 53.56C70.5915 53.7733 70.7835 54.2 70.7835 54.84C70.7835 55.9067 70.2502 58.8293 69.1835 63.608C67.9888 69.0693 67.3915 72.44 67.3915 73.72C67.3915 74.5307 67.5622 75.1707 67.9035 75.64C68.2448 76.0667 68.6928 76.28 69.2475 76.28C70.1008 76.28 71.1035 75.768 72.2555 74.744C73.4502 73.6773 75.0288 71.9707 76.9915 69.624C77.5035 69.0267 78.0795 68.728 78.7195 68.728C79.2742 68.728 79.7008 68.984 79.9995 69.496C80.3408 70.008 80.5115 70.712 80.5115 71.608C80.5115 73.3147 80.1062 74.6373 79.2955 75.576C77.4608 77.8373 75.4768 79.6933 73.3435 81.144C71.2528 82.5947 68.8635 83.32 66.1755 83.32C64.1275 83.32 62.6128 82.5307 61.6315 80.952C60.6928 79.3733 60.2235 77.1547 60.2235 74.296C59.4982 77.1973 58.4102 79.4373 56.9595 81.016C55.5088 82.552 53.9515 83.32 52.2875 83.32ZM79.866 83.32C78.2447 83.32 77.0927 82.4667 76.41 80.76C75.77 79.0533 75.45 76.3227 75.45 72.568C75.45 67.0213 76.2393 61.752 77.818 56.76C78.202 55.5227 78.8207 54.6267 79.674 54.072C80.57 53.4747 81.8073 53.176 83.386 53.176C84.2393 53.176 84.8367 53.2827 85.178 53.496C85.5193 53.7093 85.69 54.1147 85.69 54.712C85.69 55.3947 85.37 56.9307 84.73 59.32C84.3033 61.0267 83.962 62.52 83.706 63.8C83.45 65.08 83.2367 66.6587 83.066 68.536C84.474 64.8667 86.0527 61.88 87.802 59.576C89.5513 57.272 91.258 55.6293 92.922 54.648C94.6287 53.6667 96.186 53.176 97.594 53.176C100.367 53.176 101.754 54.5627 101.754 57.336C101.754 59 101.285 62.008 100.346 66.36C99.5353 70.072 99.13 72.5253 99.13 73.72C99.13 75.4267 99.7487 76.28 100.986 76.28C101.839 76.28 102.842 75.768 103.994 74.744C105.189 73.6773 106.767 71.9707 108.73 69.624C109.242 69.0267 109.818 68.728 110.458 68.728C111.013 68.728 111.439 68.984 111.738 69.496C112.079 70.008 112.25 70.712 112.25 71.608C112.25 73.3147 111.845 74.6373 111.034 75.576C109.199 77.8373 107.215 79.6933 105.082 81.144C102.991 82.5947 100.602 83.32 97.914 83.32C95.738 83.32 94.0953 82.7013 92.986 81.464C91.8767 80.184 91.322 78.3493 91.322 75.96C91.322 74.7653 91.6207 72.632 92.218 69.56C92.7727 66.872 93.05 65.016 93.05 63.992C93.05 63.3093 92.8153 62.968 92.346 62.968C91.7913 62.968 91.002 63.6933 89.978 65.144C88.9967 66.552 87.9727 68.4293 86.906 70.776C85.882 73.1227 85.05 75.5973 84.41 78.2C83.9407 80.2053 83.386 81.5707 82.746 82.296C82.1487 82.9787 81.1887 83.32 79.866 83.32ZM135.616 68.728C136.171 68.728 136.597 68.984 136.896 69.496C137.237 70.008 137.408 70.712 137.408 71.608C137.408 73.3147 137.003 74.6373 136.192 75.576C134.613 77.496 132.373 79.2667 129.472 80.888C126.613 82.5093 123.541 83.32 120.256 83.32C115.776 83.32 112.299 82.104 109.824 79.672C107.349 77.24 106.112 73.912 106.112 69.688C106.112 66.744 106.731 64.0133 107.968 61.496C109.205 58.936 110.912 56.9093 113.088 55.416C115.307 53.9227 117.803 53.176 120.576 53.176C123.051 53.176 125.035 53.9227 126.528 55.416C128.021 56.8667 128.768 58.8507 128.768 61.368C128.768 64.312 127.701 66.8507 125.568 68.984C123.477 71.0747 119.915 72.7387 114.88 73.976C115.947 75.9387 117.973 76.92 120.96 76.92C122.88 76.92 125.056 76.2587 127.488 74.936C129.963 73.5707 132.096 71.8 133.888 69.624C134.4 69.0267 134.976 68.728 135.616 68.728ZM119.488 59.448C117.909 59.448 116.565 60.3653 115.456 62.2C114.389 64.0347 113.856 66.2533 113.856 68.856V68.984C116.373 68.3867 118.357 67.4907 119.808 66.296C121.259 65.1013 121.984 63.7147 121.984 62.136C121.984 61.3253 121.749 60.6853 121.28 60.216C120.853 59.704 120.256 59.448 119.488 59.448Z" fill="black"/>
<path d="M150.373 83.32C146.789 83.32 144.08 82.3387 142.245 80.376C140.41 78.3707 139.493 75.704 139.493 72.376C139.493 70.4987 139.77 68.216 140.325 65.528L144.293 47.224C144.378 46.8827 144.57 45.944 144.869 44.408C145.21 42.872 145.381 41.208 145.381 39.416C145.381 38.392 145.168 37.624 144.741 37.112C144.357 36.6 143.824 36.344 143.141 36.344C141.861 36.344 140.368 36.9627 138.661 38.2C136.954 39.3947 135.162 41.2507 133.285 43.768C132.688 44.5787 132.026 44.984 131.301 44.984C130.704 44.984 130.17 44.7067 129.701 44.152C129.274 43.5547 129.061 42.8933 129.061 42.168C129.061 40.8453 129.658 39.352 130.853 37.688C135.205 31.7147 140.304 28.728 146.149 28.728C148.752 28.728 150.778 29.5173 152.229 31.096C153.722 32.6747 154.469 35 154.469 38.072C154.469 40.248 154.32 42.2533 154.021 44.088C153.722 45.9227 153.21 48.4187 152.485 51.576L149.861 63.288C149.776 63.672 149.626 64.3547 149.413 65.336C149.2 66.3173 149.029 67.256 148.901 68.152C148.773 69.0053 148.709 69.8587 148.709 70.712C148.709 72.0773 149.093 73.1653 149.861 73.976C150.629 74.7867 151.717 75.192 153.125 75.192C155.685 75.192 158.266 73.8267 160.869 71.096C163.514 68.3653 165.946 63.9707 168.165 57.912C170.426 51.8107 172.176 44.024 173.413 34.552C173.712 32.376 174.138 30.8613 174.693 30.008C175.29 29.1547 176.421 28.728 178.085 28.728C179.578 28.728 180.688 29.176 181.413 30.072C182.138 30.968 182.501 32.4187 182.501 34.424C182.501 35.576 182.352 37.0907 182.053 38.968C181.797 40.8453 181.392 43.4693 180.837 46.84C179.685 53.368 178.768 59.3627 178.085 64.824C177.744 67.2987 177.573 69.1333 177.573 70.328C177.573 72.0773 177.957 73.4213 178.725 74.36C179.536 75.256 180.602 75.704 181.925 75.704C183.333 75.704 184.698 75.2347 186.021 74.296C187.386 73.3573 188.986 71.8 190.821 69.624C191.333 69.0267 191.909 68.728 192.549 68.728C193.104 68.728 193.53 68.984 193.829 69.496C194.17 70.008 194.341 70.712 194.341 71.608C194.341 73.272 193.936 74.5947 193.125 75.576C190.906 78.264 188.709 80.2267 186.533 81.464C184.357 82.7013 182.074 83.32 179.685 83.32C176.144 83.32 173.434 82.424 171.557 80.632C169.68 78.7973 168.741 76.4293 168.741 73.528C168.741 71.9067 169.082 68.7493 169.765 64.056C167.632 70.328 164.922 75.1067 161.637 78.392C158.394 81.6773 154.64 83.32 150.373 83.32ZM214.479 63.48C214.479 66.8507 213.689 70.0507 212.111 73.08C210.575 76.0667 208.505 78.4987 205.903 80.376C203.343 82.2533 200.591 83.2347 197.647 83.32C197.092 91.5547 195.833 98.424 193.871 103.928C191.908 109.475 189.028 112.248 185.23 112.248C182.926 112.248 181.22 111.416 180.11 109.752C179.001 108.088 178.446 105.784 178.446 102.84C178.446 98.6587 179.406 93.7733 181.326 88.184C183.246 82.6373 186.212 76.5147 190.223 69.816C190.223 63.5867 190.18 59.256 190.095 56.824C190.052 55.5867 190.543 54.6053 191.567 53.88C192.591 53.1547 193.871 52.792 195.407 52.792C196.303 52.792 196.943 52.984 197.327 53.368C197.753 53.7093 197.988 54.4133 198.031 55.48C198.031 56.5467 198.052 57.336 198.095 57.848C199.46 56.1413 200.804 54.9253 202.127 54.2C203.449 53.432 204.857 53.048 206.351 53.048C208.74 53.048 210.681 54.008 212.175 55.928C213.711 57.848 214.479 60.3653 214.479 63.48ZM197.967 77.176C199.503 76.8347 200.911 76.0027 202.191 74.68C203.513 73.3147 204.559 71.6507 205.327 69.688C206.095 67.6827 206.479 65.592 206.479 63.416C206.479 62.136 206.223 61.176 205.711 60.536C205.199 59.8533 204.516 59.512 203.663 59.512C202.127 59.512 200.271 61.1333 198.095 64.376C198.052 66.2533 198.031 69.0053 198.031 72.632C198.031 74.5947 198.009 76.1093 197.967 77.176ZM185.742 105.976C186.895 105.976 187.855 103.459 188.623 98.424C189.391 93.432 189.881 87.2027 190.095 79.736C188.26 84.0027 186.809 88.0773 185.742 91.96C184.676 95.8427 184.142 99.1067 184.142 101.752C184.142 103.117 184.313 104.163 184.654 104.888C184.953 105.613 185.316 105.976 185.742 105.976Z" fill="#CEBF9E"/>
</svg>
