<svg width="65" height="65" viewBox="0 0 65 65" fill="none" xmlns="http://www.w3.org/2000/svg">
<path d="M57.2813 32.5L61.8854 25.5937C62.0981 25.2539 62.2327 24.8712 62.2796 24.4731C62.3264 24.075 62.2843 23.6715 62.1563 23.2916C62.0399 22.908 61.8307 22.559 61.5473 22.2756C61.2638 21.9921 60.9149 21.783 60.5313 21.6666L52.5417 18.4166L51.8646 10.427C51.8525 10.0419 51.7622 9.66325 51.5992 9.31408C51.4363 8.9649 51.2041 8.65248 50.9167 8.39579C50.5877 8.16045 50.2101 8.0018 49.8117 7.9315C49.4134 7.8612 49.0043 7.88103 48.6146 7.98954L40.0833 9.74995L34.5313 3.52079C33.9798 3.00677 33.2539 2.72095 32.5 2.72095C31.7461 2.72095 31.0203 3.00677 30.4688 3.52079L24.9167 9.74995L16.3854 7.98954C15.9957 7.88103 15.5867 7.8612 15.1883 7.9315C14.7899 8.0018 14.4124 8.16045 14.0833 8.39579C13.796 8.65248 13.5638 8.9649 13.4008 9.31408C13.2379 9.66325 13.1476 10.0419 13.1354 10.427L12.4583 18.4166L4.46876 21.6666C4.08517 21.783 3.73619 21.9921 3.45274 22.2756C3.16929 22.559 2.96012 22.908 2.84376 23.2916C2.71574 23.6715 2.67362 24.075 2.72046 24.4731C2.76729 24.8712 2.90191 25.2539 3.1146 25.5937L7.71876 32.5L3.1146 39.4062C2.9103 39.7455 2.78292 40.1255 2.74144 40.5195C2.69995 40.9134 2.74537 41.3116 2.87449 41.686C3.00361 42.0605 3.21329 42.402 3.48875 42.6866C3.7642 42.9713 4.09874 43.192 4.46876 43.3333L12.4583 46.5833L13.1354 54.5729C13.1476 54.958 13.2379 55.3367 13.4008 55.6858C13.5638 56.035 13.796 56.3474 14.0833 56.6041C14.4124 56.8395 14.7899 56.9981 15.1883 57.0684C15.5867 57.1387 15.9957 57.1189 16.3854 57.0104L24.9167 55.25L30.4688 61.3437C30.7229 61.6319 31.0355 61.8627 31.3857 62.0208C31.7359 62.1789 32.1158 62.2606 32.5 62.2606C32.8843 62.2606 33.2641 62.1789 33.6143 62.0208C33.9645 61.8627 34.2771 61.6319 34.5313 61.3437L40.0833 55.25L48.6146 57.0104C49.0043 57.1189 49.4134 57.1387 49.8117 57.0684C50.2101 56.9981 50.5877 56.8395 50.9167 56.6041C51.2041 56.3474 51.4363 56.035 51.5992 55.6858C51.7622 55.3367 51.8525 54.958 51.8646 54.5729L52.5417 46.5833L60.5313 43.3333C60.9013 43.192 61.2358 42.9713 61.5113 42.6866C61.7867 42.402 61.9964 42.0605 62.1255 41.686C62.2547 41.3116 62.3001 40.9134 62.2586 40.5195C62.2171 40.1255 62.0897 39.7455 61.8854 39.4062L57.2813 32.5ZM24.375 42.1145L18.6875 37.7812L17.1979 36.5625H17.0625L17.875 38.4583L20.1771 43.875L17.3333 44.9583L12.5938 33.3125L15.4375 32.2291L21.2604 36.5625L22.75 37.7812C22.5151 37.1785 22.2437 36.5906 21.9375 36.0208L19.7708 30.4687L22.6146 29.25L27.3542 40.8958L24.375 42.1145ZM28.8438 40.3541L24.1042 28.5729L33.0417 25.052L33.9896 27.4895L28.0313 29.7916L28.8438 31.9583L33.9896 29.7916L34.9375 32.0937L29.7917 34.125L30.7396 36.6979L36.8333 34.2604L37.7813 36.6979L28.8438 40.3541ZM47.6667 32.6354L44.1458 27.625L42.9271 25.5937H42.7917C43.0177 26.3497 43.1986 27.1184 43.3333 27.8958L44.4167 33.9895L41.5729 35.2083L33.5833 24.7812L36.5625 23.5625L39.6771 28.0312L41.4375 30.7395C41.2029 29.7115 41.0221 28.6719 40.8958 27.625L39.9479 22.2083L42.6563 21.125L45.7708 25.7291L47.3958 28.302C47.3958 28.302 47.125 26.4062 46.8542 25.052L46.0417 19.7708L48.8854 18.552L50.5104 31.552L47.6667 32.6354Z" fill="#FF0000"/>
</svg>
