<svg width="65" height="55" viewBox="0 0 65 55" fill="none" xmlns="http://www.w3.org/2000/svg">
<path d="M48.0581 53.6606C49.1943 54.2319 50.4385 54.5176 51.6826 54.5176C53.0156 54.5176 54.3486 54.1875 55.5547 53.54C57.7891 52.3276 59.2427 50.2202 59.5283 47.7446C59.5664 47.4336 59.5855 47.1162 59.5855 46.7925V-1.78613C59.5855 -6.31836 55.8975 -10 51.3716 -10H13.6284C9.10255 -10 5.41456 -6.31836 5.42091 -1.78613V46.7925C5.42091 47.1162 5.43995 47.4336 5.47804 47.7446C5.76368 50.2202 7.21095 52.334 9.45167 53.54C11.7876 54.7969 14.5869 54.8477 16.9483 53.6606L31.313 46.4434C32.0557 46.0689 32.9507 46.0689 33.6934 46.4434L48.0581 53.6606Z" fill="#FFB618"/>
<path d="M23.5185 37V34.1364L32.3778 24.9574C33.3239 23.9602 34.1037 23.0866 34.7173 22.3366C35.3395 21.5781 35.804 20.858 36.1108 20.1761C36.4176 19.4943 36.571 18.7699 36.571 18.0028C36.571 17.1335 36.3665 16.3835 35.9574 15.7528C35.5483 15.1136 34.9901 14.6236 34.2827 14.2827C33.5753 13.9332 32.7784 13.7585 31.892 13.7585C30.9545 13.7585 30.1364 13.9503 29.4375 14.3338C28.7386 14.7173 28.2017 15.2585 27.8267 15.9574C27.4517 16.6562 27.2642 17.4744 27.2642 18.4119H23.4929C23.4929 16.8182 23.8594 15.4247 24.5923 14.2315C25.3253 13.0384 26.331 12.1136 27.6094 11.4574C28.8878 10.7926 30.3409 10.4602 31.9688 10.4602C33.6136 10.4602 35.0625 10.7884 36.3153 11.4446C37.5767 12.0923 38.5611 12.9787 39.2685 14.1037C39.9759 15.2202 40.3295 16.4815 40.3295 17.8878C40.3295 18.8594 40.1463 19.8097 39.7798 20.7386C39.4219 21.6676 38.7955 22.7031 37.9006 23.8452C37.0057 24.9787 35.7614 26.3551 34.1676 27.9744L28.9645 33.4205V33.6122H40.7514V37H23.5185Z" fill="white"/>
</svg>
