<svg width="65" height="55" viewBox="0 0 65 55" fill="none" xmlns="http://www.w3.org/2000/svg">
<path d="M48.0581 53.6606C49.1943 54.2319 50.4385 54.5176 51.6826 54.5176C53.0156 54.5176 54.3486 54.1875 55.5547 53.54C57.7891 52.3276 59.2427 50.2202 59.5283 47.7446C59.5664 47.4336 59.5855 47.1162 59.5855 46.7925V-1.78613C59.5855 -6.31836 55.8975 -10 51.3716 -10H13.6284C9.10255 -10 5.41456 -6.31836 5.42091 -1.78613V46.7925C5.42091 47.1162 5.43995 47.4336 5.47804 47.7446C5.76368 50.2202 7.21095 52.334 9.45167 53.54C11.7876 54.7969 14.5869 54.8477 16.9483 53.6606L31.313 46.4434C32.0557 46.0689 32.9507 46.0689 33.6934 46.4434L48.0581 53.6606Z" fill="#FFB618"/>
<path d="M35.4517 10.8182V37H31.4886V14.7812H31.3352L25.071 18.8722V15.0881L31.6037 10.8182H35.4517Z" fill="white"/>
</svg>
