<svg width="65" height="55" viewBox="0 0 65 55" fill="none" xmlns="http://www.w3.org/2000/svg">
<path d="M48.0581 53.6606C49.1943 54.2319 50.4385 54.5176 51.6826 54.5176C53.0156 54.5176 54.3486 54.1875 55.5547 53.54C57.7891 52.3276 59.2427 50.2202 59.5283 47.7446C59.5664 47.4336 59.5855 47.1162 59.5855 46.7925V-1.78613C59.5855 -6.31836 55.8975 -10 51.3716 -10H13.6284C9.10255 -10 5.41456 -6.31836 5.42091 -1.78613V46.7925C5.42091 47.1162 5.43995 47.4336 5.47804 47.7446C5.76368 50.2202 7.21095 52.334 9.45167 53.54C11.7876 54.7969 14.5869 54.8477 16.9483 53.6606L31.313 46.4434C32.0557 46.0689 32.9507 46.0689 33.6934 46.4434L48.0581 53.6606Z" fill="#FFB618"/>
<path d="M32.6335 37.358C30.8778 37.358 29.3097 37.0554 27.929 36.4503C26.5568 35.8452 25.4702 35.0057 24.669 33.9318C23.8764 32.8494 23.4503 31.5966 23.3906 30.1733H27.4048C27.456 30.9489 27.7159 31.6222 28.1847 32.1932C28.6619 32.7557 29.2841 33.1903 30.0511 33.4972C30.8182 33.804 31.6705 33.9574 32.608 33.9574C33.6392 33.9574 34.5511 33.7784 35.3438 33.4205C36.1449 33.0625 36.7713 32.5639 37.223 31.9247C37.6747 31.277 37.9006 30.5312 37.9006 29.6875C37.9006 28.8097 37.6747 28.0384 37.223 27.3736C36.7798 26.7003 36.1278 26.1719 35.267 25.7884C34.4148 25.4048 33.3835 25.2131 32.1733 25.2131H29.9616V21.9915H32.1733C33.1449 21.9915 33.9972 21.8168 34.7301 21.4673C35.4716 21.1179 36.0511 20.6321 36.4688 20.0099C36.8864 19.3793 37.0952 18.642 37.0952 17.7983C37.0952 16.9886 36.9119 16.2855 36.5455 15.6889C36.1875 15.0838 35.6761 14.6108 35.0114 14.2699C34.3551 13.929 33.5795 13.7585 32.6847 13.7585C31.8324 13.7585 31.0355 13.9162 30.294 14.2315C29.5611 14.5384 28.9645 14.9815 28.5043 15.5611C28.044 16.1321 27.7969 16.8182 27.7628 17.6193H23.9403C23.983 16.2045 24.4006 14.9602 25.1932 13.8864C25.9943 12.8125 27.0511 11.973 28.3636 11.3679C29.6761 10.7628 31.1335 10.4602 32.7358 10.4602C34.4148 10.4602 35.8636 10.7884 37.0824 11.4446C38.3097 12.0923 39.2557 12.9574 39.9205 14.0398C40.5938 15.1222 40.9261 16.3068 40.9176 17.5938C40.9261 19.0597 40.517 20.304 39.6903 21.3267C38.8722 22.3494 37.7813 23.0355 36.4176 23.3849V23.5895C38.1563 23.8537 39.5028 24.544 40.4574 25.6605C41.4205 26.777 41.8977 28.1619 41.8892 29.8153C41.8977 31.2557 41.4972 32.5469 40.6875 33.6889C39.8864 34.831 38.7912 35.7301 37.402 36.3864C36.0128 37.0341 34.4233 37.358 32.6335 37.358Z" fill="white"/>
</svg>
