<svg width="65" height="65" viewBox="0 0 65 65" fill="none" xmlns="http://www.w3.org/2000/svg">
<g clip-path="url(#clip0_312_221)">
<path d="M57.5794 32.779L62.1835 25.8728C62.3962 25.533 62.5308 25.1503 62.5777 24.7522C62.6245 24.3541 62.5824 23.9505 62.4544 23.5707C62.338 23.1871 62.1288 22.8381 61.8454 22.5546C61.5619 22.2712 61.213 22.062 60.8294 21.9457L52.8398 18.6957L52.1627 10.7061C52.1506 10.321 52.0603 9.9423 51.8973 9.59313C51.7344 9.24395 51.5022 8.93153 51.2148 8.67484C50.8858 8.4395 50.5082 8.28085 50.1098 8.21055C49.7115 8.14025 49.3024 8.16009 48.9127 8.26859L40.3814 10.029L34.8294 3.79984C34.2779 3.28582 33.552 3 32.7981 3C32.0442 3 31.3184 3.28582 30.7669 3.79984L25.2148 10.029L16.6835 8.26859C16.2938 8.16009 15.8848 8.14025 15.4864 8.21055C15.088 8.28085 14.7105 8.4395 14.3814 8.67484C14.0941 8.93153 13.8619 9.24395 13.6989 9.59313C13.536 9.9423 13.4457 10.321 13.4335 10.7061L12.7564 18.6957L4.76686 21.9457C4.38326 22.062 4.03428 22.2712 3.75084 22.5546C3.46739 22.8381 3.25822 23.1871 3.14186 23.5707C3.01383 23.9505 2.97172 24.3541 3.01855 24.7522C3.06539 25.1503 3.2 25.533 3.41269 25.8728L8.01686 32.779L3.41269 39.6853C3.2084 40.0246 3.08102 40.4046 3.03953 40.7985C2.99805 41.1924 3.04346 41.5906 3.17258 41.9651C3.3017 42.3395 3.51138 42.6811 3.78684 42.9657C4.0623 43.2503 4.39683 43.4711 4.76686 43.6123L12.7564 46.8623L13.4335 54.8519C13.4457 55.2371 13.536 55.6157 13.6989 55.9649C13.8619 56.3141 14.0941 56.6265 14.3814 56.8832C14.7105 57.1185 15.088 57.2772 15.4864 57.3475C15.8848 57.4178 16.2938 57.3979 16.6835 57.2894L25.2148 55.529L30.7669 61.6228C31.021 61.9109 31.3336 62.1418 31.6838 62.2998C32.034 62.4579 32.4139 62.5397 32.7981 62.5397C33.1824 62.5397 33.5622 62.4579 33.9124 62.2998C34.2626 62.1418 34.5752 61.9109 34.8294 61.6228L40.3814 55.529L48.9127 57.2894C49.3024 57.3979 49.7115 57.4178 50.1098 57.3475C50.5082 57.2772 50.8858 57.1185 51.2148 56.8832C51.5022 56.6265 51.7344 56.3141 51.8973 55.9649C52.0603 55.6157 52.1506 55.2371 52.1627 54.8519L52.8398 46.8623L60.8294 43.6123C61.1994 43.4711 61.5339 43.2503 61.8094 42.9657C62.0848 42.6811 62.2945 42.3395 62.4236 41.9651C62.5528 41.5906 62.5982 41.1924 62.5567 40.7985C62.5152 40.4046 62.3878 40.0246 62.1835 39.6853L57.5794 32.779Z" fill="#FF0000"/>
<path d="M33.3864 39.6364V38.4091C33.3864 37.5303 33.5682 36.7273 33.9318 36C34.303 35.2652 34.8409 34.678 35.5455 34.2386C36.2576 33.7917 37.1174 33.5682 38.125 33.5682C39.1553 33.5682 40.0189 33.7879 40.7159 34.2273C41.4129 34.6667 41.9394 35.2538 42.2955 35.9886C42.6591 36.7235 42.8409 37.5303 42.8409 38.4091V39.6364C42.8409 40.5152 42.6591 41.322 42.2955 42.0568C41.9318 42.7841 41.3977 43.3712 40.6932 43.8182C39.9962 44.2576 39.1402 44.4773 38.125 44.4773C37.1023 44.4773 36.2386 44.2576 35.5341 43.8182C34.8295 43.3712 34.2955 42.7841 33.9318 42.0568C33.5682 41.322 33.3864 40.5152 33.3864 39.6364ZM36.0341 38.4091V39.6364C36.0341 40.2879 36.1894 40.8788 36.5 41.4091C36.8106 41.9394 37.3523 42.2045 38.125 42.2045C38.8902 42.2045 39.4242 41.9394 39.7273 41.4091C40.0303 40.8788 40.1818 40.2879 40.1818 39.6364V38.4091C40.1818 37.7576 40.0341 37.1667 39.7386 36.6364C39.4508 36.1061 38.9129 35.8409 38.125 35.8409C37.3674 35.8409 36.8295 36.1061 36.5114 36.6364C36.1932 37.1667 36.0341 37.7576 36.0341 38.4091ZM21.6818 26.3182V25.0909C21.6818 24.2121 21.8636 23.4053 22.2273 22.6705C22.5985 21.9356 23.1364 21.3485 23.8409 20.9091C24.553 20.4697 25.4129 20.25 26.4205 20.25C27.4508 20.25 28.3144 20.4697 29.0114 20.9091C29.7083 21.3485 30.2348 21.9356 30.5909 22.6705C30.947 23.4053 31.125 24.2121 31.125 25.0909V26.3182C31.125 27.197 30.9432 28.0038 30.5795 28.7386C30.2235 29.4659 29.6932 30.053 28.9886 30.5C28.2917 30.9394 27.4356 31.1591 26.4205 31.1591C25.3902 31.1591 24.5227 30.9394 23.8182 30.5C23.1212 30.053 22.5909 29.4659 22.2273 28.7386C21.8636 28.0038 21.6818 27.197 21.6818 26.3182ZM24.3409 25.0909V26.3182C24.3409 26.9697 24.4924 27.5606 24.7955 28.0909C25.1061 28.6212 25.6477 28.8864 26.4205 28.8864C27.178 28.8864 27.7083 28.6212 28.0114 28.0909C28.322 27.5606 28.4773 26.9697 28.4773 26.3182V25.0909C28.4773 24.4394 28.3295 23.8485 28.0341 23.3182C27.7386 22.7879 27.2008 22.5227 26.4205 22.5227C25.6629 22.5227 25.125 22.7879 24.8068 23.3182C24.4962 23.8485 24.3409 24.4394 24.3409 25.0909ZM22.7614 44L38.7614 20.7273H41.4773L25.4773 44H22.7614Z" fill="white"/>
</g>
<defs>
<clipPath id="clip0_312_221">
<rect width="65" height="65" fill="white"/>
</clipPath>
</defs>
</svg>
